# AST/ASF file generated using VICON BodyLanguage
# -----------------------------------------------
:version 1.10
:name VICON
:units
  mass 1.0
  length 0.45
  angle deg
:documentation
   .ast/.asf automatically generated from VICON data using
   VICON BodyBuilder and BodyLanguage model FoxedUp or BRILLIANT.MOD
:root
   order TX TY TZ RX RY RZ
   axis XYZ
   position 0 0 0  
   orientation 0 0 0 
:bonedata
  begin
     id 1 
     name lhipjoint
     direction 0.440178 -0.822639 0.359871 
     length 2.53113 
     axis 0 0 0  XYZ
  end
  begin
     id 2 
     name lfemur
     direction 0.34202 -0.939693 0  
     length 7.88132  
     axis 0 0 20  XYZ
    dof rx ry rz
    limits (-160.0 20.0)
           (-70.0 70.0)
           (-60.0 70.0)
  end
  begin
     id 3 
     name ltibia
     direction 0.34202 -0.939693 0   
     length 8.43783   
     axis 0 0 20   XYZ
    dof rx
    limits (-10.0 170.0)
  end
  begin
     id 4 
     name lfoot
     direction 0.0886351 -0.243523 0.965837   
     length 2.63414   
     axis -90 7.62852e-016 20   XYZ
    dof rx rz
    limits (-45.0 90.0)
           (-70.0 20.0)
  end
  begin
     id 5 
     name ltoes
     direction 1.53703e-011 -4.21717e-011 1   
     length 1.31427   
     axis -90 7.62852e-016 20   XYZ
    dof rx
    limits (-90.0 20.0)
  end
  begin
     id 6 
     name rhipjoint
     direction -0.399779 -0.839773 0.367367   
     length 2.47948  
     axis 0 0 0  XYZ 
  end
  begin
     id 7 
     name rfemur
     direction -0.34202 -0.939693 0   
     length 7.74806   
     axis 0 0 -20   XYZ
    dof rx ry rz
    limits (-160.0 20.0)
           (-70.0 70.0)
           (-70.0 60.0)
  end
  begin
     id 8 
     name rtibia
     direction -0.34202 -0.939693 0   
     length 8.74432   
     axis 0 0 -20   XYZ
    dof rx
    limits (-10.0 170.0)
 end
 begin
     id 9 
     name rfoot
     direction -0.108514 -0.298139 0.948334   
     length 2.66102  
     axis -90 -7.62852e-016 -20   XYZ
    dof rx rz
    limits (-45.0 90.0)
           (-20.0 70.0)
  end
  begin
     id 10 
     name rtoes
     direction -1.53392e-011 -4.22077e-011 1   
     length 1.31983   
     axis -90 -7.62852e-016 -20   XYZ
    dof rx
    limits (-90.0 20.0)
  end
  begin
     id 11 
     name lowerback
     direction 0.0113257 0.999866 0.0118602   
     length 2.58694   
     axis 0 0 0   XYZ
    dof rx ry rz
    limits (-20.0 45.0)
           (-30.0 30.0)
           (-30.0 30.0)
  end
  begin
     id 12 
     name upperback
     direction -0.0164747 0.995193 -0.0965375   
     length 2.52368   
     axis 0 0 0   XYZ
    dof rx ry rz
    limits (-20.0 45.0)
           (-30.0 30.0)
           (-30.0 30.0)
  end
  begin
     id 13 
     name thorax
     direction -0.0194301 0.99433 -0.104552   
     length 2.56099   
     axis 0 0 0   XYZ
    dof rx ry rz
    limits (-20.0 45.0)
           (-30.0 30.0)
           (-30.0 30.0)
  end
  begin
     id 14 
     name lowerneck
     direction 0.0148543 0.995587 -0.092657   
     length 1.71582   
     axis 0 0 0   XYZ
    dof rx ry rz
    limits (-20.0 45.0)
           (-30.0 30.0)
           (-30.0 30.0)
  end
  begin
     id 15 
     name upperneck
     direction -0.0135467 0.993656 -0.111639   
     length 1.68937   
     axis 0 0 0   XYZ
    dof rx ry rz
    limits (-20.0 45.0)
           (-30.0 30.0)
           (-30.0 30.0)
  end
  begin
     id 16
     name head
     direction -0.00615349 0.999547 -0.029448  
     length 1.7462  
     axis 0 0 0   XYZ
    dof rx ry rz
    limits (-20.0 45.0)
           (-30.0 30.0)
           (-30.0 30.0)
  end
  begin
     id 17 
     name lclavicle
     direction 0.988267 0.149885 0.0293713  
     length 4.47222  
     axis 0 0 0   XYZ
    dof ry rz
    limits (-20.0 10.0)
           (0.0 20.0)
  end
  begin
     id 18 
     name lhumerus
     direction 1 -4.48986e-011 -1.14833e-027   
     length 5.37148   
     axis 180 -30 -90   XYZ
    dof rx ry rz
    limits (-60.0 90.0)
           (-90.0 90.0)
           (-90.0 90.0)
  end
  begin
     id 19
     name lradius
     direction 0.999998 0.00170963 -0.000987055   
     length 3.94212   
     axis 180 -30 -90   XYZ
    dof rx
    limits (-10.0 170.0)
  end
  begin
     id 20
     name lwrist
     direction 0.999998 7.53149e-005 -0.00194706   
     length 1.97106   
     axis 4.65056e-015 90 90   XYZ
    dof ry
    limits (-180.0 0.0)
 end
  begin
     id 21 
     name lhand
     direction 1 -4.48973e-011 -1.31746e-026   
     length 1.17917   
     axis 8.4065e-015 90 90   XYZ
    dof rx rz
    limits (-90.0 90.0)
           (-45.0 45.0)
  end
  begin
     id 22 
     name lfingers
     direction 1 -4.49107e-011 -2.63492e-026   
     length 0.950679   
     axis 1.6813e-014 90 90   XYZ
    dof rx
    limits (0.0 90.0)
  end
  begin
     id 23
     name lthumb
     direction 0.707107 -6.35048e-011 0.707107   
     length 1.36499   
     axis -90 45 2.85299e-015   XYZ
    dof rx rz
    limits (-45.0 45.0)
           (-45.0 45.0)
  end
  begin
     id 24 
     name rclavicle
     direction -0.996699 0.0642895 -0.0495725   
     length 4.62611  
     axis 0 0 0   XYZ 
    dof ry rz
    limits (-10.0 20.0)
           (-20.0 0.0)
  end
  begin
     id 25 
     name rhumerus
     direction -1 -4.48919e-011 -2.41059e-027  
     length 5.4981   
     axis 180 30 90   XYZ
    dof rx ry rz
    limits (-90.0 60.0)
           (-90.0 90.0)
           (-90.0 90.0)
  end
  begin
     id 26 
     name rradius
     direction -0.999999 0.00118101 -0.000681858   
     length 3.48381   
     axis 180 30 90   XYZ
    dof rx
    limits (-10.0 170.0)
  end
  begin
     id 27 
     name rwrist
     direction -0.999999 0.000321823 -0.00132288   
     length 1.7419   
     axis 4.65056e-015 -90 -90   XYZ
    dof ry
    limits (-180.0 0.0)
  end
  begin
     id 28
     name rhand
     direction -1 -4.49022e-011 -1.31746e-026   
     length 1.34932   
     axis 8.4065e-015 -90 -90   XYZ
    dof rx rz
    limits (-90.0 90.0)
           (-45.0 45.0)
  end
  begin
     id 29
     name rfingers
     direction -1 -4.49178e-011 -2.63492e-026   
     length 1.08785   
     axis 1.6813e-014 -90 -90   XYZ
    dof rx
    limits (0.0 90.0)
  end
  begin
     id 30
     name rthumb
     direction -0.707107 -6.34713e-011 0.707107   
     length 1.56195   
     axis -90 -45 -2.85299e-015   XYZ
    dof rx rz
    limits (-45.0 45.0)
           (-45.0 45.0)
  end
:hierarchy
  begin
    root lhipjoint rhipjoint lowerback
    lhipjoint lfemur
    lfemur ltibia
    ltibia lfoot
    lfoot ltoes
    rhipjoint rfemur
    rfemur rtibia
    rtibia rfoot
    rfoot rtoes
    lowerback upperback
    upperback thorax
    thorax lowerneck lclavicle rclavicle
    lowerneck upperneck
    upperneck head
    lclavicle lhumerus
    lhumerus lradius
    lradius lwrist
    lwrist lhand lthumb
    lhand lfingers
    rclavicle rhumerus
    rhumerus rradius
    rradius rwrist
    rwrist rhand rthumb
    rhand rfingers
  end

#!OML:ASF X:\für Bonn\!DataBase\2005_08_10_Bjorn_Final\c3d\bjorn.ASF
:FULLY-SPECIFIED
:DEGREES
1
root -13.1431 19.3959 0.656691 809.792 86.7513 94.6377
lowerback -1.46012 -0.11277 6.57929
upperback 8.2928 -0.516597 2.97721
thorax 9.60007 0.246061 -0.529474
lowerneck 5.43855 -0.885087 2.58336
upperneck 23.8655 1.97627 -9.86197
head 6.43277 1.03446 -3.51896
rclavicle 6.36111e-015 1.59028e-014
rhumerus -27.4296 -19.5072 -74.0404
rradius 33.1385
rwrist 3.1071
rhand -10.045 11.834
rfingers 7.12502
rthumb 15.9403 -17.5301
lclavicle 6.36111e-015 1.59028e-014
lhumerus -34.165 -7.37202 72.986
lradius 39.6264
lwrist -16.9351
lhand -26.6064 -13.5028
lfingers 7.12502
lthumb -0.039909 16.4769
rfemur -6.74134 0.427957 15.4342
rtibia 27.9526
rfoot -14.2088 6.71492
rtoes -3.44061
lfemur -27.7573 8.56557 -16.8764
ltibia 84.0515
lfoot -2.31906 -7.59788
ltoes -22.7248
2
root -13.0922 19.389 0.658184 806.874 86.6709 91.9133
lowerback -1.33582 -0.129327 6.65221
upperback 8.31676 -0.532504 3.0209
thorax 9.55281 0.242921 -0.52457
lowerneck 5.34426 -0.835347 2.52211
upperneck 24.0197 2.08395 -9.93731
head 6.50682 1.07468 -3.53164
rclavicle 1.55052e-014 5.24792e-014
rhumerus -27.1285 -18.9954 -74.1254
rradius 33.5443
rwrist 2.91773
rhand -10.1534 11.8877
rfingers 7.12502
rthumb 15.836 -17.4847
lclavicle 1.55052e-014 5.24792e-014
lhumerus -34.0696 -7.43018 72.9046
lradius 39.5607
lwrist -16.9981
lhand -26.6469 -13.4152
lfingers 7.12502
lthumb -0.079049 16.5645
rfemur -6.42338 0.624304 15.3806
rtibia 28.0596
rfoot -14.4564 6.65648
rtoes -3.52105
lfemur -28.7764 8.74547 -17.0597
ltibia 84.4966
lfoot -2.85629 -7.71927
ltoes -22.2409
3
root -13.0441 19.379 0.659891 804.516 86.5673 89.727
lowerback -1.22949 -0.152752 6.67011
upperback 8.34406 -0.556998 3.08176
thorax 9.51925 0.231011 -0.471513
lowerneck 5.26006 -0.783527 2.474
upperneck 24.1325 2.19722 -10.0533
head 6.56622 1.11633 -3.55911
rclavicle -1.15295e-014 -4.92986e-014
rhumerus -26.8313 -18.4548 -74.2028
rradius 34.0025
rwrist 2.66973
rhand -10.2185 11.8726
rfingers 7.12502
rthumb 15.7732 -17.5047
lclavicle -1.15295e-014 -4.92986e-014
lhumerus -33.9301 -7.35584 72.8286
lradius 39.4762
lwrist -17.1455
lhand -26.6437 -13.4456
lfingers 7.12502
lthumb -0.075943 16.5342
rfemur -6.15883 0.807374 15.3118
rtibia 28.2153
rfoot -14.7261 6.56825
rtoes -3.72904
lfemur -29.8158 8.91123 -17.2728
ltibia 84.8748
lfoot -3.33039 -7.76691
ltoes -21.9615
4
root -12.9956 19.3679 0.66178 802.309 86.4977 87.6906
lowerback -1.107 -0.191737 6.69434
upperback 8.35546 -0.602109 3.17358
thorax 9.45755 0.207305 -0.391283
lowerneck 5.23643 -0.713408 2.35619
upperneck 24.1956 2.32958 -10.1557
head 6.60073 1.16461 -3.56834
rclavicle 5.1684e-015 6.36111e-015
rhumerus -26.5302 -17.7842 -74.2454
rradius 34.428
rwrist 2.37677
rhand -10.2526 11.8816
rfingers 7.12502
rthumb 15.7404 -17.4983
lclavicle 5.1684e-015 6.36111e-015
lhumerus -33.8232 -7.24484 72.7906
lradius 39.3795
lwrist -17.2828
lhand -26.6867 -13.4975
lfingers 7.12502
lthumb -0.117488 16.4822
rfemur -5.92358 1.00408 15.2829
rtibia 28.4256
rfoot -15.01 6.50992
rtoes -3.93666
lfemur -30.8235 9.05119 -17.4384
ltibia 85.1547
lfoot -3.79028 -7.81894
ltoes -21.6558
5
root -12.9496 19.3542 0.662906 800.294 86.4087 85.8563
lowerback -0.974953 -0.221589 6.68698
upperback 8.39095 -0.632444 3.27258
thorax 9.41802 0.189636 -0.283806
lowerneck 5.2175 -0.658831 2.24954
upperneck 24.1908 2.43201 -10.2719
head 6.6101 1.1984 -3.58406
rclavicle 9.54166e-015 1.90833e-014
rhumerus -26.1919 -17.2163 -74.2687
rradius 34.8427
rwrist 2.15425
rhand -10.3653 11.9697
rfingers 7.12502
rthumb 15.6318 -17.4188
lclavicle 9.54166e-015 1.90833e-014
lhumerus -33.648 -7.14621 72.77
lradius 39.2584
lwrist -17.4555
lhand -26.7704 -13.5623
lfingers 7.12502
lthumb -0.198302 16.4174
rfemur -5.71204 1.15869 15.231
rtibia 28.6837
rfoot -15.3051 6.47089
rtoes -4.17542
lfemur -31.7806 9.17202 -17.6401
ltibia 85.3083
lfoot -4.22351 -7.80196
ltoes -21.7996
6
root -12.9039 19.3385 0.664354 798.487 86.3197 84.2095
lowerback -0.86038 -0.261604 6.6939
upperback 8.42079 -0.67773 3.34541
thorax 9.38163 0.166473 -0.213519
lowerneck 5.26591 -0.590591 2.15653
upperneck 24.1117 2.53682 -10.3635
head 6.58383 1.23818 -3.59285
rclavicle 5.96354e-015 1.11319e-014
rhumerus -25.8815 -16.65 -74.3313
rradius 35.31
rwrist 1.94386
rhand -10.4434 12.0712
rfingers 7.12502
rthumb 15.5566 -17.3231
lclavicle 5.96354e-015 1.11319e-014
lhumerus -33.4755 -7.0443 72.7096
lradius 39.1369
lwrist -17.6064
lhand -26.8787 -13.6527
lfingers 7.12502
lthumb -0.302934 16.3268
rfemur -5.5371 1.3263 15.1931
rtibia 28.9662
rfoot -15.6039 6.40191
rtoes -4.64014
lfemur -32.7058 9.27417 -17.837
ltibia 85.3465
lfoot -4.66043 -7.73773
ltoes -21.761
